<svg xmlns="http://www.w3.org/2000/svg" width="1200" height="630" viewBox="0 0 1200 630">
  <defs>
    <linearGradient id="g" x1="0" x2="1" y1="0" y2="1">
      <stop offset="0%" stop-color="#0f172a"/>
      <stop offset="100%" stop-color="#14532d"/>
    </linearGradient>
  </defs>
  <rect width="1200" height="630" fill="url(#g)"/>
  <circle cx="960" cy="130" r="90" fill="#facc15" opacity=".9"/>
  <path d="M0 490 C160 410 230 450 360 380 C520 290 680 400 820 310 C980 210 1060 320 1200 240 L1200 630 L0 630 Z" fill="#166534"/>
  <path d="M0 550 C180 500 260 520 420 450 C610 370 770 500 930 390 C1040 320 1120 350 1200 300 L1200 630 L0 630 Z" fill="#22c55e" opacity=".75"/>
  <text x="80" y="145" fill="#fff" font-family="Inter, Arial, sans-serif" font-size="58" font-weight="800">Randonnées sportives</text>
  <text x="80" y="220" fill="#d1fae5" font-family="Inter, Arial, sans-serif" font-size="44" font-weight="700">autour de Lyon</text>
  <text x="80" y="290" fill="#e5e7eb" font-family="Inter, Arial, sans-serif" font-size="28">10 traces GPX · carte interactive · départs accessibles</text>
</svg>
